<?xml version="1.0" encoding="UTF-8" standalone="no"?>
<!-- Created with Inkscape (http://www.inkscape.org/) -->

<svg
   xmlns:dc="http://purl.org/dc/elements/1.1/"
   xmlns:cc="http://creativecommons.org/ns#"
   xmlns:rdf="http://www.w3.org/1999/02/22-rdf-syntax-ns#"
   xmlns:svg="http://www.w3.org/2000/svg"
   xmlns="http://www.w3.org/2000/svg"
   xmlns:sodipodi="http://sodipodi.sourceforge.net/DTD/sodipodi-0.dtd"
   xmlns:inkscape="http://www.inkscape.org/namespaces/inkscape"
   width="210mm"
   height="297mm"
   viewBox="0 0 210 297"
   version="1.1"
   id="svg6294"
   inkscape:version="0.92.2 (5c3e80d, 2017-08-06)"
   sodipodi:docname="iniciales3.svg">
  <defs
     id="defs6288" />
  <sodipodi:namedview
     id="base"
     pagecolor="#ffffff"
     bordercolor="#666666"
     borderopacity="1.0"
     inkscape:pageopacity="0.0"
     inkscape:pageshadow="2"
     inkscape:zoom="0.98994949"
     inkscape:cx="323.48969"
     inkscape:cy="922.35284"
     inkscape:document-units="mm"
     inkscape:current-layer="layer1"
     showgrid="false"
     inkscape:window-width="1218"
     inkscape:window-height="777"
     inkscape:window-x="-8"
     inkscape:window-y="-8"
     inkscape:window-maximized="1" />
  <metadata
     id="metadata6291">
    <rdf:RDF>
      <cc:Work
         rdf:about="">
        <dc:format>image/svg+xml</dc:format>
        <dc:type
           rdf:resource="http://purl.org/dc/dcmitype/StillImage" />
        <dc:title></dc:title>
      </cc:Work>
    </rdf:RDF>
  </metadata>
  <g
     inkscape:label="Capa 1"
     inkscape:groupmode="layer"
     id="layer1">
    <g
       id="g6286"
       transform="matrix(1.2540678,0,0,1.0548111,-11.110421,-38.336771)"
       style="display:inline;fill:#000080">
      <path
         inkscape:connector-curvature="0"
         d="m 12.92352,41.998133 c 0.222036,1.374339 0.339724,2.761089 0.43091,4.149278 0.04749,1.108443 0.127003,2.22541 -0.0025,3.332443 -0.04996,0.427048 -0.124384,0.851696 -0.218256,1.271283 -0.256007,1.144296 -0.454381,1.591215 -0.849315,2.6973 -0.456945,1.177444 -1.003777,2.314702 -1.641161,3.404558 -0.156964,0.268393 -0.326381,0.529307 -0.489572,0.793961 0,0 -1.0042518,0.441109 -1.0042518,0.441109 v 0 c 0.1833071,-0.271571 0.3753281,-0.537462 0.5499211,-0.814716 0.6835507,-1.08548 1.2647757,-2.231845 1.7326187,-3.426629 0.402464,-1.137307 0.569755,-1.483744 0.811782,-2.659976 0.307954,-1.496634 0.273774,-3.024716 0.147621,-4.539125 -0.120672,-1.335844 -0.232643,-2.702428 -0.678556,-3.976809 0,0 1.21077,-0.672677 1.21077,-0.672677 z"
         id="path6213"
         style="opacity:1;fill:#000080;fill-opacity:1;stroke-width:3.96499991;stroke-miterlimit:4;stroke-dasharray:none" />
      <path
         inkscape:connector-curvature="0"
         d="m 11.569309,42.774967 c 0.328371,-0.551434 0.504556,-1.221348 0.695754,-1.831152 0.270137,-0.86923 0.461758,-1.760304 0.580483,-2.662211 0.03814,-0.404233 0.02297,-0.210598 0.04703,-0.580784 0,0 1.187506,-0.591627 1.187506,-0.591627 v 0 c -0.0442,0.384355 -0.01945,0.183626 -0.07519,0.602073 -0.137964,0.91287 -0.353551,1.812012 -0.611317,2.698279 -0.17171,0.602927 -0.328859,1.211527 -0.538218,1.802728 0,0 -1.286058,0.562694 -1.286058,0.562694 z"
         id="path6217"
         style="opacity:1;fill:#000080;fill-opacity:1;stroke-width:3.96499991;stroke-miterlimit:4;stroke-dasharray:none" />
      <path
         inkscape:connector-curvature="0"
         d="m 14.434883,36.959293 c 0.190403,0.582785 0.376988,1.172509 0.506471,1.772616 0.06043,0.280085 0.104681,0.56342 0.157021,0.84513 0.600378,3.158968 0.834194,6.367891 1.016813,9.57304 0.123563,2.993094 0.278763,5.98683 0.313361,8.982686 -0.04025,0.994063 0.03665,2.04194 -0.282316,3.001359 0,0 -1.217856,0.561335 -1.217856,0.561335 v 0 c 0.457995,-0.916257 0.447174,-2.08997 0.554155,-3.082597 0.130787,-3.032437 0.07372,-6.072084 -0.06232,-9.103349 -0.04061,-0.629656 -0.07308,-1.259893 -0.121824,-1.888972 -0.196037,-2.529895 -0.530862,-5.05365 -1.199068,-7.506173 -0.226238,-0.843934 -0.466987,-1.688434 -0.874121,-2.466301 0,0 1.209685,-0.688774 1.209684,-0.688774 z"
         id="path6221"
         style="opacity:1;fill:#000080;fill-opacity:1;stroke-width:3.96499991;stroke-miterlimit:4;stroke-dasharray:none" />
      <path
         sodipodi:nodetypes="ccccccccc"
         inkscape:connector-curvature="0"
         d="m 12.971473,49.08918 c 1.21323,0.0032 2.558206,-0.10712 3.743837,-0.213808 1.540285,-0.14252 2.904128,-0.34941 4.418281,-0.589744 l -0.44336,1.329246 v 0 c -1.532982,0.13598 -3.055903,0.31071 -4.562836,0.545044 -1.257719,0.19812 -2.515772,0.397078 -3.745264,0.69615 l 0.589339,-1.7669 z"
         id="path6223"
         style="opacity:1;fill:#000080;fill-opacity:1;stroke-width:5.43340206;stroke-miterlimit:4;stroke-dasharray:none" />
      <path
         inkscape:connector-curvature="0"
         d="m 21.333151,36.463223 c -0.05977,0.912554 -0.07896,1.827924 -0.102155,2.74226 -0.05803,2.445461 -0.07355,4.891639 -0.08365,7.337771 -0.002,1.871594 -0.02448,3.74505 0.128855,5.611247 0.0689,0.838515 0.172824,1.686609 0.26872,2.522006 0.223498,1.72441 0.576316,3.415634 1.154112,5.042345 0.169055,0.463892 0.424154,0.869118 0.710511,1.254828 0,0 -1.15138,0.734858 -1.15138,0.734858 v 0 c -0.258098,-0.423243 -0.488005,-0.862796 -0.639945,-1.345334 -0.488814,-1.682431 -0.795499,-3.419229 -0.98778,-5.169458 -0.129746,-1.304626 -0.267479,-2.611821 -0.319115,-3.923605 -0.05566,-1.413941 -0.02213,-2.831505 -0.03844,-4.246042 -0.01002,-2.415466 -0.02507,-4.830997 -0.08365,-7.245777 -0.02288,-0.876877 -0.04105,-1.755 -0.102154,-2.629915 0,0 1.246067,-0.685184 1.246067,-0.685184 z"
         id="path6235"
         style="opacity:1;fill:#000080;fill-opacity:1;stroke-width:4.11901474;stroke-miterlimit:4;stroke-dasharray:none" />
      <path
         inkscape:connector-curvature="0"
         d="m 22.267812,61.561036 c 0.61425,-1.178262 1.144673,-2.40001 1.64146,-3.640081 0.426391,-1.08274 0.730356,-2.211252 0.995471,-3.349894 0,0 1.076013,-0.552904 1.076013,-0.552904 v 0 c -0.316897,1.145525 -0.648073,2.288381 -1.0589,3.399507 -0.248542,0.663026 -0.387641,1.050172 -0.651761,1.695197 -0.249635,0.609649 -0.532081,1.204569 -0.741725,1.83269 0,0 -1.260558,0.615485 -1.260558,0.615485 z"
         id="path6241"
         style="opacity:1;fill:#000080;fill-opacity:1;stroke-width:4.11901474;stroke-miterlimit:4;stroke-dasharray:none" />
      <path
         inkscape:connector-curvature="0"
         d="m 21.355831,36.4625 c 0.537648,1.092282 1.037298,2.206461 1.554559,3.310268 0.815599,1.728451 1.358921,3.581488 1.886762,5.429208 0.313465,1.189635 0.551656,2.400252 0.782315,3.611165 0,0 -1.14005,0.653711 -1.14005,0.653711 v 0 c -0.162185,-1.2345 -0.344624,-2.470294 -0.639039,-3.677 -0.492087,-1.852495 -1.032317,-3.70128 -1.873994,-5.409652 -0.363956,-0.721336 -0.72632,-1.441227 -1.121032,-2.143666 -0.113965,-0.202814 -0.337592,-0.598955 -0.4794,-0.809283 -0.04826,-0.07158 -0.104342,-0.136619 -0.156513,-0.204931 0,0 1.186392,-0.75982 1.186392,-0.75982 z"
         id="path6247"
         style="opacity:1;fill:#000080;fill-opacity:1;stroke-width:4.11901474;stroke-miterlimit:4;stroke-dasharray:none" />
    </g>
  </g>
</svg>
